HIERARCHY
ROOT Hips
{
     OFFSET 16.70420 99.52260 -9.37912
     CHANNELS 6 Xposition Yposition Zposition Zrotation Xrotation Yrotation
     JOINT Spine
     {
          OFFSET 0.00000 11.89050 0.00000
          CHANNELS 3 Zrotation Xrotation Yrotation
          JOINT Spine1
          {
               OFFSET 0.00000 25.65740 0.12766
               CHANNELS 3 Zrotation Xrotation Yrotation
               JOINT HEad
               {
                    OFFSET 0.00000 8.73416 0.01134
                    CHANNELS 3 Zrotation Xrotation Yrotation
                    End Site
                    {
                         OFFSET -0.29000 12.77420 2.51395
                    }
               }
               JOINT LeftShoulder1
               {
                    OFFSET 8.99000 -0.36225 -0.22000
                    CHANNELS 3 Zrotation Xrotation Yrotation
                    JOINT LeftArm
                    {
                         OFFSET 10.28270 -0.00338 0.32212
                         CHANNELS 3 Zrotation Xrotation Yrotation
                         JOINT LeftForeArm
                         {
                              OFFSET 32.76690 0.09914 -1.42434
                              CHANNELS 3 Zrotation Xrotation Yrotation
                              JOINT LeftHand
                              {
                                   OFFSET 27.56430 0.08536 1.02216
                                   CHANNELS 3 Zrotation Xrotation Yrotation
                                   End Site
                                   {
                                        OFFSET 16.74430 -0.60000 1.50291
                                   }
                              }
                         }
                    }
               }
               JOINT RightShoulder
               {
                    OFFSET -8.99000 -0.36225 -0.22000
                    CHANNELS 3 Zrotation Xrotation Yrotation
                    JOINT RightArm
                    {
                         OFFSET -10.28270 -0.00338 0.32212
                         CHANNELS 3 Zrotation Xrotation Yrotation
                         JOINT RightForeArm
                         {
                              OFFSET -32.89710 0.09914 -1.42434
                              CHANNELS 3 Zrotation Xrotation Yrotation
                              JOINT RightHand
                              {
                                   OFFSET -27.49210 0.08536 1.02216
                                   CHANNELS 3 Zrotation Xrotation Yrotation
                                   End Site
                                   {
                                        OFFSET -16.63120 -0.60000 1.50291
                                   }
                              }
                         }
                    }
               }
          }
     }
     JOINT LeftUpLeg
     {
          OFFSET 8.94580 -8.66707 0.10165
          CHANNELS 3 Zrotation Xrotation Yrotation
          JOINT LeftLeg
          {
               OFFSET -0.00000 -44.42270 1.37270
               CHANNELS 3 Zrotation Xrotation Yrotation
               JOINT LeftFoot
               {
                    OFFSET -0.25355 -42.09240 -1.46059
                    CHANNELS 3 Zrotation Xrotation Yrotation
                    JOINT LeftToes
                    {
                         OFFSET -0.04000 -4.41509 8.49910
                         CHANNELS 3 Zrotation Xrotation Yrotation
                         End Site
                         {
                              OFFSET 0.08000 -0.04745 9.77979
                         }
                    }
               }
          }
     }
     JOINT RightUpLeg
     {
          OFFSET -8.94580 -8.66707 0.10165
          CHANNELS 3 Zrotation Xrotation Yrotation
          JOINT RightLeg
          {
               OFFSET 0.00000 -44.42270 1.37270
               CHANNELS 3 Zrotation Xrotation Yrotation
               JOINT RightFoot
               {
                    OFFSET 0.25355 -42.09240 -1.46059
                    CHANNELS 3 Zrotation Xrotation Yrotation
                    JOINT RightToes
                    {
                         OFFSET 0.04000 -4.41509 8.49910
                         CHANNELS 3 Zrotation Xrotation Yrotation
                         End Site
                         {
                              OFFSET -0.08000 -0.13745 9.77979
                         }
                    }
               }
          }
     }
}
MOTION
Frames: 10
Frame Time: 0.01667
17.77480 88.47150 14.72490 -5.18805 3.92798 -95.55410 -0.02754 7.34010 4.05240 -4.04626 14.41320 8.99847 9.27047 -10.77860 -54.27180 -0.00000 -0.00000 0.00000 -99.84080 -70.07060 -89.06610 -24.02170 36.44350 -89.43740 5.55594 9.67997 -0.87718 -6.76446 0.06606 2.90561 -16.36380 0.10908 95.95860 -5.53701 -4.43272 41.85680 -5.55712 9.68432 0.87760 10.03360 -20.55630 -6.31881 25.74740 62.55070 -27.42600 -17.89840 -11.16750 -0.50758 -0.40708 -40.62900 -10.43760 -15.96750 -12.89040 -2.49347 -17.96150 32.12480 35.59030 25.22850 -21.78290 2.98700 -4.12693 -1.98990 7.70085 
18.04960 88.97120 17.93190 -4.49178 6.58789 -104.58600 -0.07247 7.10016 3.53250 -4.33901 13.83390 8.02316 11.03040 -8.05302 -49.82760 -0.00000 -0.00000 0.00000 -93.04670 -74.98000 -79.82090 -24.42550 36.42060 -88.21250 5.55594 9.67997 -0.87718 -6.81989 0.06484 2.84012 -16.95920 4.35122 93.73850 -6.12105 2.16430 22.76750 -5.55712 9.68432 0.87760 11.69170 -18.74270 -4.83303 22.91470 64.30760 -23.07850 -17.26780 -10.13040 -0.33396 -0.65254 -43.10060 -10.66660 -14.09240 -14.71430 -0.43596 -16.20410 25.54300 39.32810 24.04100 -14.53510 1.27128 -4.19245 -3.70478 4.66844 
17.96470 89.54800 20.67130 -4.40165 8.29830 -114.30500 -0.96234 7.07915 3.18922 -5.30832 13.73320 7.34821 12.73190 -5.36786 -44.18810 -0.00000 -0.00000 0.00000 -82.07240 -79.57630 -66.61510 -24.79880 36.28010 -86.49290 5.55594 9.67997 -0.87718 -6.51977 0.07971 2.63758 -14.36300 8.63736 90.10530 -4.64269 8.78913 2.38790 -5.55712 9.68432 0.87760 12.86870 -15.54240 -2.40821 17.89980 65.16430 -17.61620 -16.31850 -8.15202 -0.03791 -1.19078 -46.40180 -11.76990 -11.51880 -15.98850 -3.13202 -18.96910 17.83650 50.18250 31.89530 -17.17160 2.53892 8.97804 8.02452 -5.35046 
17.87600 90.02610 23.39000 -3.14597 10.45910 -124.69800 -1.55237 6.83342 3.04755 -5.72725 13.25430 7.15448 14.39120 -2.79349 -37.78420 -0.00000 -0.00000 0.00000 -59.16820 -82.80430 -42.07070 -24.76070 35.79400 -84.77980 5.55594 9.67997 -0.87718 -5.34837 0.12612 2.30154 -10.49150 12.21610 84.00080 -3.30543 8.79148 -3.15869 -5.55712 9.68432 0.87760 15.27140 -12.52110 0.57853 11.98870 65.02760 -11.97400 -15.80350 -4.41705 0.46274 -3.25353 -50.76540 -17.46550 -8.65040 -17.54710 -0.59397 -15.34100 11.00970 46.99770 39.70270 -6.52800 -0.57501 4.90557 3.48939 -4.19822 
17.88750 90.42910 25.76690 -3.99037 12.07710 -133.78700 -2.88495 7.12512 2.83540 -7.22220 13.90700 6.83061 15.96370 -0.32173 -31.00010 -0.00000 -0.00000 0.00000 -25.79440 -83.05960 -7.91305 -24.08020 34.83180 -83.44130 5.55594 9.67997 -0.87718 -2.88193 0.20890 2.00591 -5.64998 13.69200 74.32480 -5.96171 3.68076 -2.05485 -5.55712 9.68432 0.87760 15.78730 -7.64697 0.41600 0.91403 63.93560 -4.11305 -15.46650 -5.13208 0.36003 -3.58974 -50.31970 -18.96940 -6.72179 -17.57380 -0.16344 -12.80580 6.31294 38.32930 49.04230 3.92648 -5.35591 0.30031 0.22337 0.45042 
17.55240 90.83100 28.05970 -3.32934 14.27440 -142.04100 -3.71929 7.20676 2.63949 -7.97013 14.17600 6.45526 17.37020 2.00760 -24.17250 -0.00000 -0.00000 0.00000 -6.52429 -80.88930 11.25700 -22.98580 33.59160 -82.53460 5.55594 9.67997 -0.87718 0.76489 0.32558 1.91736 -0.24135 11.23630 60.97470 -9.76027 0.27968 -0.16608 -5.55712 9.68432 0.87760 16.34850 -3.14139 1.15841 -3.22440 61.42800 -2.16625 -14.01640 -5.55828 0.27743 -4.45064 -51.46000 -21.12150 -3.73061 -17.82220 -0.59329 -10.48310 5.04415 26.09510 50.73820 7.47027 -7.19561 5.23406 10.67370 5.09994 
17.27760 91.25170 30.23820 -2.80328 15.46200 -147.72400 -4.50427 7.22722 1.98813 -9.03365 14.31160 5.11453 18.55190 4.11021 -17.60830 -0.00000 -0.00000 0.00000 -1.10791 -78.21890 15.91400 -21.89250 32.43470 -81.96100 5.55594 9.67997 -0.87718 4.90404 0.46795 2.00529 3.44693 4.62586 45.84460 -6.85375 1.24980 10.61440 -5.55712 9.68432 0.87760 14.94140 -0.35964 0.08553 -3.54894 58.88260 -4.45641 -14.13630 -6.90066 0.12054 -4.19066 -50.02070 -21.37430 -1.14285 -18.84210 -2.58193 -10.44960 7.65976 23.20930 45.62380 -1.13348 -2.87247 22.85810 24.11640 -8.56386 
17.04420 91.94010 32.40810 -3.02278 15.85640 -151.20799 -5.34794 7.26217 1.08500 -10.53560 14.44920 3.19755 19.44930 5.82528 -11.62170 -0.00000 -0.00000 0.00000 -2.43649 -75.85530 13.55990 -21.00970 31.58040 -81.62910 5.55594 9.67997 -0.87718 8.62676 0.60063 2.07129 3.67584 -3.07903 30.82080 -3.79123 6.44849 14.98760 -5.55712 9.68432 0.87760 11.59670 1.53421 -0.82560 -1.02420 56.22280 -7.59717 -10.06820 -10.96630 -0.24423 -2.31476 -46.48620 -16.66880 0.23378 -19.50040 -3.94715 -11.32790 9.97658 23.74950 37.56160 -3.27690 -1.63637 24.34990 25.23290 -9.50042 
16.78190 92.34970 34.47780 -2.96169 16.21380 -153.48100 -5.88464 7.30694 0.12335 -11.51530 14.62040 1.20188 20.01280 6.84561 -6.50991 -0.00000 -0.00000 0.00000 -7.67485 -73.85540 7.39267 -20.30650 31.01300 -81.48960 5.55594 9.67997 -0.87718 11.19870 0.66404 1.89652 1.66135 -9.92313 16.15890 -1.33777 13.05650 9.96844 -5.55712 9.68432 0.87760 9.10540 2.51059 -2.85901 1.08737 53.67780 -7.69956 -17.52750 -8.49895 -0.09518 -4.51057 -47.20570 -25.33430 2.10011 -19.89100 -3.22411 -13.79520 12.81060 23.96310 34.01080 -4.27744 -1.18727 20.74410 22.89260 -6.83737 
16.46420 92.51440 36.43540 -2.66926 16.36780 -155.04401 -6.23657 7.32351 -0.82852 -11.92130 14.77920 -0.75583 20.26430 6.96413 -2.42467 -0.00000 -0.00000 0.00000 -14.85210 -71.91380 -0.47428 -19.73310 30.64460 -81.55330 5.55594 9.67997 -0.87718 12.41150 0.62110 1.35524 -1.63051 -16.11070 1.56386 2.08225 18.75140 0.89381 -5.55712 9.68432 0.87760 7.56840 2.47276 -4.42302 0.31741 52.36130 -3.20434 -16.99260 -5.06925 0.40352 -6.76431 -50.63760 -29.84320 3.81799 -21.02640 -1.61929 -16.60510 18.49210 27.28810 30.04230 -9.15565 0.22345 22.14240 21.16450 -10.50360 
